<?xml version="1.0" encoding="UTF-8"?>
<svg version="1.1" xmlns="http://www.w3.org/2000/svg" width="1500" height="1500">
<path d="M0 0 C495 0 990 0 1500 0 C1500 495 1500 990 1500 1500 C1005 1500 510 1500 0 1500 C0 1005 0 510 0 0 Z " fill="#FEFEFE" transform="translate(0,0)"/>
<path d="M0 0 C13.2 0 26.4 0 40 0 C40 70.95 40 141.9 40 215 C30 215 30 215 27.68725586 213.39526367 C27.20135986 212.66025635 26.71546387 211.92524902 26.21484375 211.16796875 C25.66505859 210.36939453 25.11527344 209.57082031 24.54882812 208.74804688 C24.01708984 207.90306641 23.48535156 207.05808594 22.9375 206.1875 C22.37095703 205.35412109 21.80441406 204.52074219 21.22070312 203.66210938 C19.07631093 200.46478209 17.22165841 197.66497523 16 194 C15.1028125 194.70125 14.205625 195.4025 13.28125 196.125 C4.33978207 202.97834795 -4.66161845 208.51710646 -15 213 C-16.00804687 213.45503906 -17.01609375 213.91007813 -18.0546875 214.37890625 C-33.46571834 220.24490871 -53.98252379 218.74573619 -68.91601562 212.15429688 C-77.44773087 208.17958087 -84.97837806 203.30013418 -92 197 C-92.91458984 196.22462891 -92.91458984 196.22462891 -93.84765625 195.43359375 C-106.78852538 183.67184709 -116.25543282 163.15607867 -117.10986328 145.76367188 C-117.74684554 118.5072546 -111.75038689 96.51790874 -92.625 76.3125 C-78.46024355 62.72069999 -59.73844253 54.96484256 -40.1875 54.625 C-37.78986024 54.70846214 -35.3931306 54.83097844 -33 55 C-31.97390625 55.07089844 -30.9478125 55.14179687 -29.890625 55.21484375 C-19.66659297 56.41846657 -9.7127731 61.19708217 -2 68 C-1.67 68.66 -1.34 69.32 -1 70 C-0.67 46.9 -0.34 23.8 0 0 Z " fill="#3C3C3C" transform="translate(801,641)"/>
<path d="M0 0 C2.13671875 1.76171875 2.13671875 1.76171875 3.7421875 3.4296875 C5.21292036 5.02411868 5.21292036 5.02411868 8.13671875 5.76171875 C8.36359375 5.2409375 8.59046875 4.72015625 8.82421875 4.18359375 C10.61771575 0.87416476 12.81290858 -2.04306223 15.13671875 -4.98828125 C15.56855469 -5.59027344 16.00039062 -6.19226563 16.4453125 -6.8125 C17.82421875 -8.53515625 17.82421875 -8.53515625 21.13671875 -11.23828125 C24.43671875 -11.23828125 27.73671875 -11.23828125 31.13671875 -11.23828125 C31.13671875 39.25171875 31.13671875 89.74171875 31.13671875 141.76171875 C22.13671875 141.76171875 22.13671875 141.76171875 19.24609375 139.1640625 C18.42947563 138.03023877 17.64355017 136.87379425 16.88671875 135.69921875 C16.4705127 135.10665283 16.05430664 134.51408691 15.62548828 133.90356445 C14.80766365 132.73416812 14.00197534 131.55616973 13.20996094 130.36914062 C11.86525844 128.35514581 10.44118824 126.40363466 9.01171875 124.44921875 C8.39296875 123.56234375 7.77421875 122.67546875 7.13671875 121.76171875 C3.6153086 123.79547434 0.41831789 126.03167319 -2.80078125 128.51171875 C-9.11303625 133.12093583 -15.73451958 136.62252047 -22.86328125 139.76171875 C-23.84425781 140.19871094 -24.82523438 140.63570312 -25.8359375 141.0859375 C-43.14109968 147.5839233 -65.49831788 144.85587026 -82.12109375 137.5859375 C-101.78531842 128.38324279 -113.66240026 112.38176386 -121.63671875 92.7578125 C-128.96007507 71.05761121 -126.92441976 44.82310792 -117.11328125 24.44921875 C-113.77198186 17.90587337 -109.83962988 12.19229798 -104.86328125 6.76171875 C-104.01830078 5.81425781 -104.01830078 5.81425781 -103.15625 4.84765625 C-74.40479173 -25.72180992 -31.48995204 -23.77419044 0 0 Z " fill="#3C3C3C" transform="translate(1226.86328125,714.23828125)"/>
<path d="M0 0 C0.99 0.495 0.99 0.495 2 1 C1.12859375 1.59425781 0.2571875 2.18851563 -0.640625 2.80078125 C-28.10376016 21.79013209 -46.74791161 47.76426332 -53.62484741 80.79858398 C-54.61082106 86.58433156 -54.58857026 92.42849498 -54.52148438 98.28173828 C-54.4999987 100.5001339 -54.52145036 102.71529365 -54.546875 104.93359375 C-54.59121106 127.55294703 -46.83864338 147.78033407 -31.1875 164.25 C-19.57296773 175.45544461 -6.45518068 181.28370004 9.62939453 181.31689453 C33.0450723 180.88807475 47.54632871 163.5399446 62.8125 148.125 C80.98623321 129.80454008 80.98623321 129.80454008 91.8125 129.625 C99.10647828 129.81118263 104.60037853 132.3878841 109.875 137.375 C115.49961148 143.5868679 116.52373855 148.51069851 116.26953125 156.82421875 C115.08190706 170.8175299 102.13525521 180.02589898 92.75390625 189.4140625 C91.6920653 190.47912911 90.63029411 191.54426527 89.56858826 192.60946655 C87.35925016 194.82474 85.14790915 197.03799118 82.93530273 199.25 C80.12547105 202.0597299 77.32260043 204.87629501 74.52142429 207.69465065 C72.33619559 209.89108708 70.14634622 212.08287312 67.95524406 214.27344894 C66.92079222 215.30906609 65.88792628 216.34627028 64.85681343 217.38521194 C56.2796772 226.02140868 47.49912555 233.77829597 37 240 C51.16935309 237.55256628 61.70677929 229.22459242 71.88671875 219.671875 C72.53616455 219.06370438 73.18561035 218.45553375 73.85473633 217.82893372 C80.53797662 211.54036863 87.07625796 205.10986815 93.56445312 198.62084961 C95.52195635 196.66556858 97.48739978 194.71849535 99.453125 192.77148438 C111.52089089 180.75779525 120.15524538 171.73984712 121 154 C121.66 154 122.32 154 123 154 C123.65601744 155.51646821 124.2992664 157.03846175 124.9375 158.5625 C125.29714844 159.40941406 125.65679687 160.25632812 126.02734375 161.12890625 C132.27814562 179.58006839 127.46297691 201.2734515 119.17358398 218.2409668 C115.35168895 225.54316139 110.52910511 231.90276666 105 238 C104.47277344 238.62003906 103.94554687 239.24007812 103.40234375 239.87890625 C91.48356635 253.01699592 72.62464114 262.09082356 55 263 C14.94861784 264.66243146 -18.6771449 253.42616273 -48.7265625 226.5625 C-66.1611969 209.7366941 -78.42214907 188.72292598 -86.3125 165.9375 C-86.55508545 165.25453857 -86.7976709 164.57157715 -87.04760742 163.86791992 C-90.94852676 152.0603652 -91.41318159 139.64902716 -91.375 127.3125 C-91.37412384 126.61445251 -91.37324768 125.91640503 -91.37234497 125.19720459 C-91.21542666 87.13827127 -73.66028549 55.49048192 -47.09375 29.0859375 C-35.38514458 17.75069574 -21.73762766 9.77442767 -7 3 C-6.35546875 2.69562012 -5.7109375 2.39124023 -5.046875 2.07763672 C-3.39180628 1.32234064 -1.69784034 0.65350043 0 0 Z " fill="#F65111" transform="translate(195,623)"/>
<path d="M0 0 C16.78162505 12.9106939 26.25404925 31.31911247 30.5859375 51.765625 C33.64350414 75.64925879 28.20781753 98.26120404 13.96875 117.78515625 C1.96025196 133.15518807 -15.51991353 144.1845422 -35 147 C-60.67360026 148.70409546 -80.66404736 144.36455799 -100.46875 127.4140625 C-115.06289484 113.49557251 -125.51906743 93.78777407 -126.1796875 73.40234375 C-126.65495332 49.28088135 -121.11908378 28.47177057 -105 10 C-104.48050781 9.38511719 -103.96101562 8.77023437 -103.42578125 8.13671875 C-76.79665004 -21.04129656 -31.12007245 -21.34544566 0 0 Z " fill="#3C3C3C" transform="translate(988,711)"/>
<path d="M0 0 C1.05703125 0.4228125 2.1140625 0.845625 3.203125 1.28125 C20.33766464 8.99627832 30.85564815 22.62254927 38.7109375 39.34375 C43.31314738 52.39729074 43.39939079 64.57769357 43.29296875 78.26953125 C43.28736293 80.40329183 43.2830975 82.5370563 43.28010559 84.67082214 C43.26873444 90.24552354 43.23933497 95.81998478 43.20599365 101.39459229 C43.17512484 107.09961703 43.16156456 112.80468116 43.14648438 118.50976562 C43.11445685 129.67329876 43.06175327 140.83659169 43 152 C29.8 152 16.6 152 3 152 C2.99589111 149.14424316 2.99178223 146.28848633 2.98754883 143.34619141 C2.97031336 133.88651103 2.92574812 124.42709947 2.86790943 114.96758461 C2.833691 109.23501021 2.8085374 103.50270087 2.80444336 97.77001953 C2.80014947 92.23250001 2.77159561 86.69557791 2.72656822 81.15824509 C2.71362818 79.05090191 2.70927308 76.94348711 2.71384621 74.83610916 C3.07603274 58.04870312 3.07603274 58.04870312 -4.98942566 43.88858032 C-11.74052858 37.35048955 -18.62557677 35.43375344 -27.93139648 35.51953125 C-36.42395087 35.81748123 -42.14817657 38.72290046 -47.9375 44.8125 C-53.51578308 51.24054611 -54.44598701 58.47471621 -54.43237305 66.62890625 C-54.4425647 67.55666367 -54.45275635 68.48442108 -54.46325684 69.44029236 C-54.49324759 72.48109078 -54.50263149 75.52157346 -54.51171875 78.5625 C-54.52857574 80.68100012 -54.54672735 82.79949029 -54.56611633 84.91796875 C-54.61351146 90.47451674 -54.64338871 96.03102442 -54.66955566 101.58770752 C-54.6994141 107.26558389 -54.74592629 112.94332152 -54.79101562 118.62109375 C-54.87692959 129.74733901 -54.94278739 140.8735701 -55 152 C-68.2 152 -81.4 152 -95 152 C-95 101.18 -95 50.36 -95 -2 C-85 -2 -85 -2 -81.6875 0.5546875 C-80.76235723 1.63707833 -79.86628451 2.74495125 -79 3.875 C-78.53722656 4.43058594 -78.07445312 4.98617187 -77.59765625 5.55859375 C-76.3796928 7.02368022 -75.18817613 8.51065423 -74 10 C-73.34 10.66 -72.68 11.32 -72 12 C-71.41734375 11.56429687 -70.8346875 11.12859375 -70.234375 10.6796875 C-48.7719265 -4.91095905 -24.92078333 -10.05387825 0 0 Z " fill="#3E3E3E" transform="translate(622,704)"/>
<path d="M0 0 C13.2 0 26.4 0 40 0 C40 20.13 40 40.26 40 61 C59.47 61 78.94 61 99 61 C99 74.2 99 87.4 99 101 C79.53 101 60.06 101 40 101 C40.061875 109.724375 40.12375 118.44875 40.1875 127.4375 C40.19418701 130.17474365 40.20087402 132.9119873 40.20776367 135.73217773 C40.23423048 137.92434062 40.26251227 140.11648266 40.29296875 142.30859375 C40.28898071 143.42850708 40.28499268 144.54842041 40.28088379 145.70227051 C40.43304875 154.16282927 42.41988767 159.93012278 48.02734375 166.3046875 C56.09250676 172.93494421 62.53466015 175.07477975 72.92578125 175.31640625 C73.92079651 175.34438293 73.92079651 175.34438293 74.93591309 175.3729248 C77.39465042 175.44080535 79.85358933 175.50121909 82.3125 175.5625 C87.819375 175.706875 93.32625 175.85125 99 176 C99 188.87 99 201.74 99 215 C90.275625 215.0928125 90.275625 215.0928125 81.375 215.1875 C78.66869385 215.22846802 78.66869385 215.22846802 75.90771484 215.27026367 C63.13140766 215.38495379 51.08676066 214.40685033 39.625 208.1875 C38.95001465 207.83349121 38.2750293 207.47948242 37.57958984 207.11474609 C32.68003016 204.49239643 28.1461203 201.72626002 24 198 C22.80503906 196.95972656 22.80503906 196.95972656 21.5859375 195.8984375 C9.18779353 184.39925261 2.13853911 168.70617455 0 152 C-0.13428642 148.08547319 -0.1162934 144.1742327 -0.09765625 140.2578125 C-0.0962413 139.13430389 -0.09482635 138.01079529 -0.09336853 136.85324097 C-0.08778664 133.27713317 -0.07523741 129.70108877 -0.0625 126.125 C-0.05748266 123.69531341 -0.05292016 121.26562583 -0.04882812 118.8359375 C-0.03782313 112.8906007 -0.02057092 106.94531109 0 101 C-6.27 101 -12.54 101 -19 101 C-19 87.8 -19 74.6 -19 61 C-12.73 61 -6.46 61 0 61 C0 40.87 0 20.74 0 0 Z " fill="#3E3E3E" transform="translate(1296,641)"/>
<path d="M0 0 C3.92988636 3.36750801 7.64368384 6.93160856 11.29248047 10.59960938 C12.63826172 11.94539062 12.63826172 11.94539062 14.01123047 13.31835938 C24.75991733 24.59784559 40.61959298 45.80541587 41.41748047 62.16210938 C39.9351852 65.37374913 37.80513734 67.31203797 35.24560547 69.72070312 C33.3390935 71.55476764 31.63108216 73.46072701 29.91748047 75.47460938 C26.62574286 79.29774857 23.09276031 82.81926569 19.49951172 86.35742188 C16.81944961 89.08017524 14.34287938 91.93913068 11.89794922 94.87304688 C10.17882737 96.72183484 8.35018206 98.14448851 6.29248047 99.59960938 C5.89158203 98.37886719 5.49068359 97.158125 5.07763672 95.90039062 C-1.3975252 76.87790718 -11.44223052 61.24588684 -29.70751953 51.59960938 C-42.91106622 45.9507578 -57.31032387 44.05364603 -71.20751953 48.53710938 C-81.09834239 52.62470206 -88.25006394 59.94330337 -95.60595703 67.49414062 C-97.51190075 69.40362699 -99.46532807 71.16604441 -101.52001953 72.91210938 C-105.1139897 75.98240724 -108.40078896 79.29110555 -111.70751953 82.66210938 C-116.0884064 87.10111633 -120.46233618 91.17883762 -125.70751953 94.59960938 C-126.59439453 95.21835937 -127.48126953 95.83710937 -128.39501953 96.47460938 C-134.90883155 98.68684742 -142.69506416 98.9065966 -149.08251953 96.09960938 C-155.57403011 92.21568233 -160.68538971 85.85548698 -162.70751953 78.59960938 C-163.49798311 70.89258951 -163.61600915 63.889004 -158.70751953 57.59960938 C-156.28386228 54.98205954 -153.77971792 52.4891608 -151.20361328 50.02148438 C-149.15255156 48.03140884 -147.29187549 46.03403327 -145.45751953 43.84960938 C-142.07136961 39.90044166 -138.44066987 36.21938182 -134.77001953 32.53710938 C-134.19670898 31.95928711 -133.62339844 31.38146484 -133.03271484 30.78613281 C-130.08156727 27.84499479 -127.07690656 25.02710832 -123.91064453 22.31835938 C-117.8311165 17.06329823 -112.33110112 11.19786606 -106.74853516 5.42578125 C-98.73779286 -2.71464194 -90.30440762 -9.9162755 -79.64501953 -14.27539062 C-78.95802979 -14.56293213 -78.27104004 -14.85047363 -77.56323242 -15.14672852 C-51.82418248 -25.61258912 -20.96592327 -17.19481496 0 0 Z " fill="#F57D35" transform="translate(339.70751953125,654.400390625)"/>
<path d="M0 0 C13.86 0 27.72 0 42 0 C42 67.98 42 135.96 42 206 C28.14 206 14.28 206 0 206 C0 138.02 0 70.04 0 0 Z " fill="#3F3F3F" transform="translate(452,650)"/>
<path d="M0 0 C13.2 0 26.4 0 40 0 C40 70.95 40 141.9 40 215 C26.8 215 13.6 215 0 215 C0 144.05 0 73.1 0 0 Z " fill="#3E3E3E" transform="translate(1040,641)"/>
<path d="M0 0 C8.73166667 6.15673283 15.43470792 15.06914245 17.69140625 25.64453125 C18.80511944 38.85547391 18.47353819 51.48968367 10.37890625 62.51953125 C9.17989624 63.92090582 7.95191264 65.29820315 6.69140625 66.64453125 C6.16804687 67.20914063 5.6446875 67.77375 5.10546875 68.35546875 C-2.80373132 75.95601711 -12.48368933 78.36419984 -23.15185547 78.16577148 C-33.26575791 77.66498159 -41.04942457 73.67432148 -48.30859375 66.64453125 C-57.71944088 55.91318975 -60.29432309 44.14851596 -59.7578125 30.21875 C-58.94173724 19.12515546 -53.00627734 9.77002853 -44.93359375 2.39453125 C-32.10885072 -8.04156784 -14.11847918 -8.28953008 0 0 Z " fill="#FDFDFD" transform="translate(961.30859375,741.35546875)"/>
<path d="M0 0 C9.35683701 5.53668953 16.39224212 13.76611254 20 24 C20.35578125 24.94230469 20.7115625 25.88460937 21.078125 26.85546875 C24.23590463 37.62670859 21.89259471 48.8205746 16.64453125 58.5 C10.04896553 68.96802924 1.79363674 75.06878775 -10 79 C-22.36783782 79.86518132 -33.23553134 78.90291001 -43.22265625 70.75390625 C-51.55230589 62.53409814 -56.01657251 50.95774649 -56.24169922 39.37939453 C-56.29560161 25.95770019 -53.011284 15.17561003 -43.625 5.125 C-31.94364538 -5.83432828 -13.98094867 -7.23852342 0 0 Z " fill="#FDFDFD" transform="translate(1197,740)"/>
<path d="M0 0 C8.11827927 6.33987955 15.38182803 15.90224831 17.1875 26.3125 C18.09896134 40.55221575 16.46974271 51.1069235 7.5234375 62.73046875 C0.42705638 70.57446193 -7.80535473 75.70217533 -18.35546875 76.62109375 C-30.3436255 77.01789332 -38.33634511 74.3868653 -47.484375 66.6484375 C-55.68169177 58.42361296 -60.10724936 48.20888201 -60.33178711 36.66308594 C-60.32542236 35.78426758 -60.31905762 34.90544922 -60.3125 34 C-60.30677979 33.07864258 -60.30105957 32.15728516 -60.29516602 31.20800781 C-60.09980993 23.73317099 -58.76324022 17.75632819 -54.8125 11.3125 C-54.31621094 10.49652344 -53.81992187 9.68054688 -53.30859375 8.83984375 C-48.31511561 1.63238976 -41.41998498 -2.72505269 -33.4375 -6.125 C-21.31528714 -8.00603303 -10.24434761 -7.03694053 0 0 Z " fill="#FDFDFD" transform="translate(783.8125,742.6875)"/>
<path d="M0 0 C0 0.33 0 0.66 0 1 C-1.01835937 1.08636719 -2.03671875 1.17273438 -3.0859375 1.26171875 C-23.30513669 3.18390704 -41.51617309 8.25470804 -57 22 C-57.59039062 22.50789062 -58.18078125 23.01578125 -58.7890625 23.5390625 C-65.1694666 29.43564448 -70.06159991 36.89744295 -75 44 C-75.62390625 44.85335937 -76.2478125 45.70671875 -76.890625 46.5859375 C-78.45430173 49.98858616 -78.13772163 51.41638991 -77 55 C-74.78330542 59.16693705 -72.2320833 63.12847994 -69.68554688 67.09960938 C-68.93821289 68.32067383 -68.93821289 68.32067383 -68.17578125 69.56640625 C-67.71083252 70.29802979 -67.24588379 71.02965332 -66.7668457 71.78344727 C-66 74 -66 74 -66.77148438 76.67285156 C-68.02514728 79.04763591 -69.1940913 80.41304695 -71.1875 82.1875 C-80.73403382 91.31550102 -85.2250332 101.09494723 -87 114 C-93.30680833 107.69319167 -93.44307851 94.11098069 -93.5 85.625 C-93.22857693 64.64950096 -86.68378832 43.46085011 -72 28 C-71.19046875 27.10152344 -70.3809375 26.20304688 -69.546875 25.27734375 C-50.20934149 4.72414659 -27.4359444 -0.48799111 0 0 Z " fill="#F47A3D" transform="translate(258,613)"/>
<path d="M0 0 C0.99 0.495 0.99 0.495 2 1 C1.12859375 1.59425781 0.2571875 2.18851563 -0.640625 2.80078125 C-19.09961015 15.5642237 -32.47574677 30.15771168 -43 50 C-43.63671875 48.20703125 -43.63671875 48.20703125 -44 46 C-42.84504729 44.25107161 -41.67394415 42.50859547 -40.390625 40.8515625 C-38.72332484 38.63161791 -37.44089655 36.24300348 -36.09375 33.8203125 C-34.00582233 30.34540431 -31.50058478 27.18433844 -29 24 C-27.7934375 22.453125 -27.7934375 22.453125 -26.5625 20.875 C-24.0333334 18.03739845 -21.40055053 15.68044521 -18.453125 13.296875 C-16.86712389 12.04219297 -16.86712389 12.04219297 -16 10 C-28.23034988 17.00393139 -38.85742082 25.26543607 -49 35 C-49.93714844 35.89589844 -50.87429687 36.79179688 -51.83984375 37.71484375 C-56.13277806 41.90691617 -59.85473558 45.86273479 -63 51 C-64.28603867 52.73335647 -65.57843834 54.46200065 -66.875 56.1875 C-72.54142675 63.95377578 -76.82918938 71.94054108 -80 81 C-80.7734375 82.7634375 -80.7734375 82.7634375 -81.5625 84.5625 C-83.59956332 89.43373838 -84.95560461 94.13702597 -85.5625 99.375 C-86 103 -86 103 -87 104 C-87.2110218 106.83707088 -87.37607813 109.65897646 -87.5 112.5 C-87.86486486 120.86486486 -87.86486486 120.86486486 -89 122 C-89.09942806 124.12308153 -89.12969184 126.24959672 -89.125 128.375 C-89.12757812 129.53773438 -89.13015625 130.70046875 -89.1328125 131.8984375 C-89.14106843 135.03571423 -89.14106843 135.03571423 -88 138 C-87.92108224 140.31199794 -87.86180883 142.62468113 -87.8125 144.9375 C-87.33495346 156.26010197 -83.97479627 167.62682176 -79.2421875 177.90234375 C-78 181 -78 181 -79 184 C-87.40132616 165.32105151 -91.43881791 147.93215866 -91.375 127.3125 C-91.37412384 126.61445251 -91.37324768 125.91640503 -91.37234497 125.19720459 C-91.21542666 87.13827127 -73.66028549 55.49048192 -47.09375 29.0859375 C-35.38514458 17.75069574 -21.73762766 9.77442767 -7 3 C-6.35546875 2.69562012 -5.7109375 2.39124023 -5.046875 2.07763672 C-3.39180628 1.32234064 -1.69784034 0.65350043 0 0 Z " fill="#EB735F" transform="translate(195,623)"/>
<path d="M0 0 C0 0.33 0 0.66 0 1 C-1.01835937 1.08636719 -2.03671875 1.17273438 -3.0859375 1.26171875 C-27.33967485 3.56746041 -46.98901875 10.9751192 -64 29 C-64 26 -64 26 -62 23.8125 C-61.01 22.9153125 -61.01 22.9153125 -60 22 C-60.33 21.67 -60.66 21.34 -61 21 C-67.30863918 27.00062244 -72.95509182 32.80225927 -77.66015625 40.19921875 C-78.10230469 40.79347656 -78.54445312 41.38773438 -79 42 C-79.66 42 -80.32 42 -81 42 C-75.34540778 26.47016299 -59.57650695 14.20717749 -45.10644531 7.06542969 C-30.23614584 0.17357398 -16.12304902 -0.2867736 0 0 Z " fill="#ED6E60" transform="translate(258,613)"/>
<path d="M0 0 C5.41973957 3.42881483 10.16099814 8.15547755 12.10546875 14.33203125 C12.94350373 23.34975975 12.71435838 30.81100468 6.97265625 38.00390625 C0.87089696 44.94931714 0.87089696 44.94931714 -1.89453125 46.33203125 C-1.89453125 45.34203125 -1.89453125 44.35203125 -1.89453125 43.33203125 C-1.23453125 43.33203125 -0.57453125 43.33203125 0.10546875 43.33203125 C0.10546875 42.67203125 0.10546875 42.01203125 0.10546875 41.33203125 C0.76546875 41.33203125 1.42546875 41.33203125 2.10546875 41.33203125 C2.10546875 40.67203125 2.10546875 40.01203125 2.10546875 39.33203125 C2.76546875 39.33203125 3.42546875 39.33203125 4.10546875 39.33203125 C4.50765625 38.49671875 4.50765625 38.49671875 4.91796875 37.64453125 C6.10546875 35.33203125 6.10546875 35.33203125 7.6640625 33.22265625 C9.61515057 29.30990511 9.47369078 26.07355194 9.35546875 21.76953125 C9.34773438 20.63741211 9.34773438 20.63741211 9.33984375 19.48242188 C9.2899662 15.94423298 9.05109275 12.73599339 8.10546875 9.33203125 C7.44546875 9.33203125 6.78546875 9.33203125 6.10546875 9.33203125 C3.98046875 7.45703125 3.98046875 7.45703125 2.10546875 5.33203125 C2.10546875 4.67203125 2.10546875 4.01203125 2.10546875 3.33203125 C1.44546875 3.33203125 0.78546875 3.33203125 0.10546875 3.33203125 C0.10546875 2.67203125 0.10546875 2.01203125 0.10546875 1.33203125 C-3.89905616 0.40092243 -7.72362048 0.10428674 -11.83203125 0.01953125 C-13.01667969 -0.01785156 -14.20132813 -0.05523438 -15.421875 -0.09375 C-22.37757991 0.75908671 -26.62997194 5.82722168 -31.26953125 10.64453125 C-35.42084635 14.88063917 -39.60823951 18.95217109 -44.13671875 22.7890625 C-45.98528784 24.41169537 -47.68457691 26.12706723 -49.39453125 27.89453125 C-52.91332079 31.4864596 -56.79973279 34.42844689 -60.89453125 37.33203125 C-61.55453125 37.00203125 -62.21453125 36.67203125 -62.89453125 36.33203125 C-61.90839844 35.45417969 -61.90839844 35.45417969 -60.90234375 34.55859375 C-54.31486761 28.61379821 -48.00378756 22.45916267 -41.76953125 16.14453125 C-17.20238677 -8.61641674 -17.20238677 -8.61641674 0 0 Z " fill="#E88C35" transform="translate(298.89453125,755.66796875)"/>
<path d="M0 0 C0.66 0 1.32 0 2 0 C0.897913 3.80720963 -0.5753325 7.14745829 -2.4375 10.625 C-4.94545465 15.48554928 -6.25477529 20.30231747 -7.421875 25.62890625 C-8 28 -8 28 -9 29 C-9.20604085 30.32781878 -9.3662959 31.66295895 -9.5 33 C-9.88888889 36.88888889 -9.88888889 36.88888889 -11 38 C-11.2110218 40.83707088 -11.37607813 43.65897646 -11.5 46.5 C-11.86486486 54.86486486 -11.86486486 54.86486486 -13 56 C-13.09942806 58.12308153 -13.12969184 60.24959672 -13.125 62.375 C-13.12757812 63.53773438 -13.13015625 64.70046875 -13.1328125 65.8984375 C-13.14106843 69.03571423 -13.14106843 69.03571423 -12 72 C-11.92108224 74.31199794 -11.86180883 76.62468113 -11.8125 78.9375 C-11.33495346 90.26010197 -7.97479627 101.62682176 -3.2421875 111.90234375 C-2 115 -2 115 -3 118 C-11.40132616 99.32105151 -15.43881791 81.93215866 -15.375 61.3125 C-15.37412384 60.61445251 -15.37324768 59.91640503 -15.37234497 59.19720459 C-15.28328383 37.59633427 -9.80897576 19.16622237 0 0 Z " fill="#E89A4F" transform="translate(119,689)"/>
<path d="M0 0 C1.17266189 3.92705378 0.99456603 7.50258742 0.83984375 11.5625 C1.01427142 14.21720406 1.76697857 15.67901848 3 18 C3 18.99 3 19.98 3 21 C3.66 21 4.32 21 5 21 C8 24.46153846 8 24.46153846 8 27 C8.66 27 9.32 27 10 27 C10 27.66 10 28.32 10 29 C10.99 29 11.98 29 13 29 C13 29.66 13 30.32 13 31 C14.2065625 30.9690625 14.2065625 30.9690625 15.4375 30.9375 C18 31 18 31 19 32 C24.91959822 32.52853556 28.70794658 31.59554496 34.01953125 28.97265625 C36 28 36 28 39 27 C39 26.34 39 25.68 39 25 C40.42578125 23.45703125 40.42578125 23.45703125 42.3125 21.8125 C42.92738281 21.26207031 43.54226562 20.71164062 44.17578125 20.14453125 C44.77777344 19.76683594 45.37976563 19.38914062 46 19 C46.99 19.33 47.98 19.66 49 20 C34.38832696 34.07447918 34.38832696 34.07447918 23.5 34.5 C15.38120332 34.19999828 10.70622628 32.09632336 5.1875 26.1875 C-0.97865669 18.50092111 -1.70207601 11.65354509 -1 2 C-0.67 1.34 -0.34 0.68 0 0 Z " fill="#E49E43" transform="translate(178,718)"/>
<path d="M0 0 C1.26585937 -0.00257813 2.53171875 -0.00515625 3.8359375 -0.0078125 C7.53464792 0.12183302 10.97937943 0.53152688 14.625 1.125 C14.625 1.455 14.625 1.785 14.625 2.125 C13.88451416 2.13958252 13.14402832 2.15416504 12.38110352 2.16918945 C8.98274587 2.24427222 5.5853066 2.34073281 2.1875 2.4375 C1.02283203 2.46005859 -0.14183594 2.48261719 -1.34179688 2.50585938 C-8.21814308 2.71892926 -14.01891572 3.46265315 -20.375 6.125 C-21.61056641 6.59873047 -21.61056641 6.59873047 -22.87109375 7.08203125 C-31.62524068 10.93949237 -39.30571906 15.67043914 -46.375 22.125 C-47.035 21.795 -47.695 21.465 -48.375 21.125 C-38.58972287 10.96336605 -26.17671547 4.21189015 -12.375 1.125 C-11.23224609 0.84849609 -11.23224609 0.84849609 -10.06640625 0.56640625 C-6.68179578 0.01131048 -3.42918766 -0.00695576 0 0 Z " fill="#E77762" transform="translate(285.375,634.875)"/>
<path d="M0 0 C0.33 0.66 0.66 1.32 1 2 C0.16824665 4.25631999 -0.71789455 6.4281317 -1.6875 8.625 C-7.42614112 21.75409953 -9.64874364 34.42504932 -9.41162109 48.66625977 C-9.37462279 50.96089473 -9.37060708 53.25392258 -9.37109375 55.54882812 C-9.33471236 62.9427734 -8.94879905 69.82347017 -7 77 C-6.875 80.0625 -6.875 80.0625 -7 82 C-9 81 -9 81 -9.62347412 79.27636719 C-10.8710157 73.54065933 -11.29373904 68.11114864 -11.265625 62.25 C-11.26753845 61.3518457 -11.2694519 60.45369141 -11.27142334 59.52832031 C-11.27277522 57.64257525 -11.26914906 55.75682056 -11.26074219 53.87109375 C-11.25002842 51.00759702 -11.26067165 48.14472754 -11.2734375 45.28125 C-11.27211573 43.43749863 -11.26955297 41.59374765 -11.265625 39.75 C-11.26967346 38.90598633 -11.27372192 38.06197266 -11.27789307 37.19238281 C-11.21188617 28.6996365 -9.40473655 21.76279933 -6 14 C-5.2370147 11.45408013 -4.52351568 8.90138367 -3.84375 6.33203125 C-2.92834604 3.80195641 -1.70750463 2.06323476 0 0 Z " fill="#E49449" transform="translate(150,673)"/>
<path d="M0 0 C-5.48306793 12.14298946 -20.75416036 20.6340506 -32.625 25.5625 C-39.39697636 28.10109726 -45.79229131 28.9756907 -53 29 C-50.66196996 26.66196996 -49.69072429 26.59260451 -46.5 26.0625 C-36.00307504 24.08962027 -26.39284064 20.91406967 -17.8046875 14.3125 C-16 13 -16 13 -14 13 C-14 12.34 -14 11.68 -14 11 C-12.390625 9.4140625 -12.390625 9.4140625 -10.25 7.625 C-7.93096298 5.66242273 -5.74780716 3.7411705 -3.625 1.5625 C-2 0 -2 0 0 0 Z " fill="#E1271D" transform="translate(303,856)"/>
<path d="M0 0 C0.33 0.99 0.66 1.98 1 3 C0.5968457 3.39268066 0.19369141 3.78536133 -0.22167969 4.18994141 C-2.06985887 5.9961889 -3.90993354 7.81049002 -5.75 9.625 C-6.38421875 10.24246094 -7.0184375 10.85992188 -7.671875 11.49609375 C-11.31245927 15.09875526 -14.28126718 18.62638634 -17 23 C-18.32111873 24.88362631 -19.65428254 26.75886836 -21 28.625 C-21.99 30.00558594 -21.99 30.00558594 -23 31.4140625 C-24.85764307 33.81593694 -26.80236852 35.91028793 -29 38 C-23.46458823 23.21254285 -11.30354293 10.70512007 0 0 Z " fill="#E98457" transform="translate(149,651)"/>
<path d="M0 0 C3.47263143 0.56373887 4.91317065 1.60850967 7.125 4.3125 C7.87136719 5.20388672 7.87136719 5.20388672 8.6328125 6.11328125 C13.26376282 12.50399268 12.84289351 19.65862045 11.640625 27.27734375 C9.70727155 33.66524805 4.67972108 38.44459789 0 43 C-0.99 43.495 -0.99 43.495 -2 44 C-2 43.01 -2 42.02 -2 41 C-1.34 41 -0.68 41 0 41 C0 40.34 0 39.68 0 39 C0.66 39 1.32 39 2 39 C2 38.34 2 37.68 2 37 C2.66 37 3.32 37 4 37 C4.268125 36.443125 4.53625 35.88625 4.8125 35.3125 C6 33 6 33 7.55859375 30.890625 C9.50968182 26.97787386 9.36822203 23.74152069 9.25 19.4375 C9.24484375 18.68275391 9.2396875 17.92800781 9.234375 17.15039062 C9.18449745 13.61220173 8.945624 10.40396214 8 7 C7.34 7 6.68 7 6 7 C3.875 5.125 3.875 5.125 2 3 C2 2.34 2 1.68 2 1 C1.34 0.67 0.68 0.34 0 0 Z " fill="#E18033" transform="translate(299,758)"/>
<path d="M0 0 C0 0.33 0 0.66 0 1 C-1.63195312 1.16435547 -1.63195312 1.16435547 -3.296875 1.33203125 C-10.17088554 2.06259105 -16.82592415 2.80285164 -23.5 4.6875 C-28.74338526 6.13594897 -32.66655707 5.97779787 -38 5 C-27.53930199 -1.97379867 -11.98649633 -0.32856386 0 0 Z " fill="#E17876" transform="translate(258,613)"/>
<path d="M0 0 C2.45758486 3.68637729 2.19643948 5.54107389 2.25 9.9375 C2.65406683 21.2711785 6.02261458 32.62120015 10.7578125 42.90234375 C12 46 12 46 11 49 C4.95825391 35.56718453 -0.23795446 22.55212576 -0.0625 7.625 C-0.05798828 6.88894531 -0.05347656 6.15289063 -0.04882812 5.39453125 C-0.03715142 3.59631842 -0.01922011 1.79814803 0 0 Z " fill="#E37E31" transform="translate(105,758)"/>
<path d="M0 0 C0 0.99 0 1.98 0 3 C-1.63604196 4.37073786 -3.30678061 5.70055256 -5 7 C-6.76323505 9.12603185 -6.76323505 9.12603185 -8 11 C-7.01 11.66 -6.02 12.32 -5 13 C-7.24435445 14.03516348 -9.49406867 15.05314977 -11.75 16.0625 C-12.38421875 16.35705078 -13.0184375 16.65160156 -13.671875 16.95507812 C-18.45095438 19.07081639 -18.45095438 19.07081639 -21.453125 18.68359375 C-21.96359375 18.45800781 -22.4740625 18.23242188 -23 18 C-22.09378906 17.3709375 -21.18757812 16.741875 -20.25390625 16.09375 C-13.1230858 11.09884444 -6.3362013 6.00095256 0 0 Z " fill="#FEE0D9" transform="translate(254,845)"/>
<path d="M0 0 C0.66 0 1.32 0 2 0 C2.65601744 1.51646821 3.2992664 3.03846175 3.9375 4.5625 C4.29714844 5.40941406 4.65679687 6.25632812 5.02734375 7.12890625 C7.28142071 13.78250692 7.12742134 20.50090475 7.0625 27.4375 C7.05798828 28.35982422 7.05347656 29.28214844 7.04882812 30.23242188 C7.03713938 32.48835048 7.02075455 34.74413967 7 37 C6.67 37 6.34 37 6 37 C5.9498877 36.29915283 5.89977539 35.59830566 5.84814453 34.8762207 C5.61543238 31.68764204 5.37034319 28.50013061 5.125 25.3125 C5.04636719 24.20970703 4.96773438 23.10691406 4.88671875 21.97070312 C4.80292969 20.90400391 4.71914063 19.83730469 4.6328125 18.73828125 C4.52283936 17.26935425 4.52283936 17.26935425 4.41064453 15.77075195 C3.98841198 12.92181188 3.17503294 10.61977985 2 8 C1.87625 9.134375 1.7525 10.26875 1.625 11.4375 C1.41875 12.613125 1.2125 13.78875 1 15 C0.01 15.495 0.01 15.495 -1 16 C-0.67 10.72 -0.34 5.44 0 0 Z " fill="#E78F59" transform="translate(316,777)"/>
<path d="M0 0 C0 4.16008909 -1.70200953 5.23288979 -4.5 8.25 C-4.95922852 8.7452417 -5.41845703 9.2404834 -5.89160156 9.75073242 C-8.9748207 13.03160755 -12.19651975 16.009374 -15.640625 18.8984375 C-21.35062412 23.98449632 -26.62886733 29.5609738 -32 35 C-32.66 34.67 -33.32 34.34 -34 34 C-22.78 22.78 -11.56 11.56 0 0 Z " fill="#DF552B" transform="translate(300,810)"/>
<path d="M0 0 C0.94602608 3.0851746 1.01578237 5.49259007 0.625 8.6875 C0.53476563 9.47511719 0.44453125 10.26273438 0.3515625 11.07421875 C0 13 0 13 -1 14 C-1.15873955 16.21687994 -1.25133837 18.43855298 -1.31640625 20.66015625 C-1.33718735 21.32462265 -1.35796844 21.98908905 -1.37937927 22.6736908 C-1.44493658 24.80318543 -1.50378785 26.93280668 -1.5625 29.0625 C-1.60567939 30.50326847 -1.64929349 31.94402399 -1.69335938 33.38476562 C-1.80062393 36.9230404 -1.90187371 40.46145869 -2 44 C-2.33 44 -2.66 44 -3 44 C-6.6446208 29.62893424 -3.82785263 13.99558619 0 0 Z " fill="#E6915D" transform="translate(169,670)"/>
<path d="M0 0 C-3.43811169 3.16306276 -6.44340596 3.48415917 -11 4 C-11.33 4.33 -11.66 4.66 -12 5 C-20.8241893 5.5521755 -29.81414103 5.82943617 -38 2 C-38.66 1.34 -39.32 0.68 -40 0 C-39.3915625 0.144375 -38.783125 0.28875 -38.15625 0.4375 C-26.73931847 2.85520315 -15.18423216 3.34660459 -4.0390625 -0.44140625 C-2 -1 -2 -1 0 0 Z " fill="#E16225" transform="translate(224,802)"/>
<path d="M0 0 C-0.66 0.33 -1.32 0.66 -2 1 C-2.72316406 0.69835937 -3.44632812 0.39671875 -4.19140625 0.0859375 C-9.549258 -1.98566582 -15.35114998 -1.54494788 -21 -1 C-24.57264285 0.54506631 -24.57264285 0.54506631 -27 3 C-30.26635219 5.7086823 -32.96775333 7.61751543 -37 9 C-25.77236363 -2.56786777 -15.50247028 -8.38781001 0 0 Z " fill="#E39B42" transform="translate(301,757)"/>
<path d="M0 0 C0.66 0 1.32 0 2 0 C3.98 4.95 5.96 9.9 8 15 C12.73195136 11.38171501 12.73195136 11.38171501 15.5625 8.375 C17.74551645 6.24795833 19.29604281 5.24622128 22 4 C17.84542161 9.91712679 13.22741666 15.01139933 8 20 C5.54260992 17.54260992 5.05126368 15.55162499 4 12.25 C3.67 11.22390625 3.34 10.1978125 3 9.140625 C2.67 8.10421875 2.34 7.0678125 2 6 C1.33610022 3.99907983 0.67025625 1.99879989 0 0 Z " fill="#E39D40" transform="translate(339,734)"/>
<path d="M0 0 C2.49798149 3.02763945 3.83358315 5.89177236 5.1875 9.5625 C8.99379329 18.96358583 15.31701176 26.48163823 22 34 C12.86430199 30.25310082 7.0475925 20.10702201 2.9609375 11.62890625 C2 9 2 9 2 5 C1.34 5 0.68 5 0 5 C0 3.35 0 1.7 0 0 Z " fill="#E38C3C" transform="translate(143,755)"/>
<path d="M0 0 C0.66 0.33 1.32 0.66 2 1 C-4.6 7.6 -11.2 14.2 -18 21 C-18.66 20.67 -19.32 20.34 -20 20 C-7.23404255 5.85106383 -7.23404255 5.85106383 0 0 Z " fill="#FEE8E1" transform="translate(184,632)"/>
<path d="M0 0 C0.33 0 0.66 0 1 0 C1.02708567 1.60407328 1.04643483 3.2082785 1.0625 4.8125 C1.07410156 5.70582031 1.08570313 6.59914063 1.09765625 7.51953125 C1 10 1 10 0 13 C-0.15145099 15.2825699 -0.24886979 17.56887706 -0.31640625 19.85546875 C-0.33718735 20.51710526 -0.35796844 21.17874176 -0.37937927 21.86042786 C-0.44464727 23.96934852 -0.50365344 26.07839135 -0.5625 28.1875 C-0.60570689 29.61915315 -0.64932188 31.05079404 -0.69335938 32.48242188 C-0.80030506 35.98815154 -0.90163641 39.49401786 -1 43 C-1.33 43 -1.66 43 -2 43 C-2.04975831 38.16196154 -2.08588788 33.32407491 -2.10986328 28.48583984 C-2.11986737 26.84290977 -2.13347494 25.19999726 -2.15087891 23.55712891 C-2.17537515 21.18387495 -2.18653917 18.81085815 -2.1953125 16.4375 C-2.20563507 15.71320801 -2.21595764 14.98891602 -2.22659302 14.24267578 C-2.2276826 9.19283085 -1.38239063 4.85989233 0 0 Z " fill="#FDEFD5" transform="translate(142,698)"/>
<path d="M0 0 C1.65 0 3.3 0 5 0 C5 0.66 5 1.32 5 2 C5.71285156 2.12503906 6.42570313 2.25007812 7.16015625 2.37890625 C10.04829361 3.01056215 12.67179817 3.89790995 15.4375 4.9375 C19.27160982 6.36233811 23.10841246 7.7378635 27 9 C27 9.33 27 9.66 27 10 C19.99813088 9.55844069 14.74329132 7.94248204 8.4375 4.9375 C7.61958984 4.56044922 6.80167969 4.18339844 5.95898438 3.79492188 C3.96700533 2.87465085 1.98126922 1.94304954 0 1 C0 0.67 0 0.34 0 0 Z " fill="#E2241D" transform="translate(178,871)"/>
<path d="M0 0 C4.12475481 -0.11751438 8.24907118 -0.18768824 12.375 -0.25 C13.53128906 -0.28351562 14.68757813 -0.31703125 15.87890625 -0.3515625 C23.455299 -0.43717146 29.2203913 0.56272483 36 4 C36 4.66 36 5.32 36 6 C34.87851562 5.69255859 34.87851562 5.69255859 33.734375 5.37890625 C32.74953125 5.10949219 31.7646875 4.84007812 30.75 4.5625 C29.77546875 4.29566406 28.8009375 4.02882813 27.796875 3.75390625 C26.87390625 3.50511719 25.9509375 3.25632812 25 3 C24.38511719 2.82146484 23.77023437 2.64292969 23.13671875 2.45898438 C20.70521263 1.9366773 18.50209572 1.88718234 16.015625 1.90234375 C15.08105469 1.90556641 14.14648438 1.90878906 13.18359375 1.91210938 C12.21550781 1.92048828 11.24742187 1.92886719 10.25 1.9375 C8.77466797 1.94426758 8.77466797 1.94426758 7.26953125 1.95117188 C4.84629209 1.96293517 2.42317727 1.97937316 0 2 C0 1.34 0 0.68 0 0 Z " fill="#E69055" transform="translate(274,699)"/>
<path d="M0 0 C0.66 0.33 1.32 0.66 2 1 C-3.61 6.61 -9.22 12.22 -15 18 C-15.66 17.67 -16.32 17.34 -17 17 C-11.6749489 10.87372593 -6.27309565 5.16205691 0 0 Z " fill="#FEEAE4" transform="translate(208,628)"/>
<path d="M0 0 C0.99 0.33 1.98 0.66 3 1 C-1.98860067 6.22741666 -7.08287321 10.84542161 -13 15 C-13.66 14.67 -14.32 14.34 -15 14 C-14.16855469 13.24074219 -13.33710938 12.48148438 -12.48046875 11.69921875 C-11.38277925 10.69534886 -10.28512484 9.6914406 -9.1875 8.6875 C-8.64029297 8.18798828 -8.09308594 7.68847656 -7.52929688 7.17382812 C-4.96878163 4.83056872 -2.42060466 2.48855146 0 0 Z " fill="#E57C30" transform="translate(251,778)"/>
<path d="M0 0 C0.66 0.33 1.32 0.66 2 1 C2.55353075 14.6332574 2.55353075 14.6332574 -1 21 C-1.66 21 -2.32 21 -3 21 C-2.5359375 19.4221875 -2.5359375 19.4221875 -2.0625 17.8125 C-0.57796206 11.96910597 -0.34748289 5.99865199 0 0 Z " fill="#FDEED5" transform="translate(311,770)"/>
<path d="M0 0 C-7.95896539 3.79524739 -15.07618809 6.3718255 -24 6 C-21.66196996 3.66196996 -20.69072429 3.59260451 -17.5 3.0625 C-12.86297984 2.22675799 -8.4972227 0.97929429 -4.03125 -0.51171875 C-2 -1 -2 -1 0 0 Z " fill="#E01B18" transform="translate(274,879)"/>
<path d="M0 0 C0.99 0.33 1.98 0.66 3 1 C-2.28018728 5.82104056 -7.7868189 9.47461354 -14 13 C-14 12.01 -14 11.02 -14 10 C-8.85714286 6 -8.85714286 6 -5 6 C-5 5.34 -5 4.68 -5 4 C-4.34 4 -3.68 4 -3 4 C-3 3.34 -3 2.68 -3 2 C-2.01 1.34 -1.02 0.68 0 0 Z " fill="#E4331C" transform="translate(244,851)"/>
<path d="M0 0 C0.99 0.33 1.98 0.66 3 1 C0.71297091 3.48348017 -1.58038832 5.96102575 -3.875 8.4375 C-4.52597656 9.14455078 -5.17695313 9.85160156 -5.84765625 10.58007812 C-6.47285156 11.25361328 -7.09804688 11.92714844 -7.7421875 12.62109375 C-8.3182373 13.2442749 -8.89428711 13.86745605 -9.48779297 14.50952148 C-11 16 -11 16 -13 17 C-13 16.01 -13 15.02 -13 14 C-12.34 14 -11.68 14 -11 14 C-11 13.34 -11 12.68 -11 12 C-10.34 12 -9.68 12 -9 12 C-9 11.34 -9 10.68 -9 10 C-8.34 10 -7.68 10 -7 10 C-6.34 8.68 -5.68 7.36 -5 6 C-4.34 6 -3.68 6 -3 6 C-2.690625 5.38125 -2.38125 4.7625 -2.0625 4.125 C-1.375 2.75 -0.6875 1.375 0 0 Z " fill="#E59744" transform="translate(374,721)"/>
<path d="M0 0 C0.66 0.33 1.32 0.66 2 1 C1.55269531 1.61746094 1.10539063 2.23492188 0.64453125 2.87109375 C-3.30321452 8.40130478 -6.84551418 13.98176439 -10 20 C-10.63671875 18.20703125 -10.63671875 18.20703125 -11 16 C-9.85022003 14.25890462 -8.68525742 12.52349845 -7.40625 10.875 C-6.03072688 9.04096917 -4.91621544 7.19425534 -3.8125 5.1875 C-2 2 -2 2 0 0 Z " fill="#E77C59" transform="translate(162,653)"/>
<path d="M0 0 C0.33 0.99 0.66 1.98 1 3 C-2.3 6.3 -5.6 9.6 -9 13 C-9.99 12.67 -10.98 12.34 -12 12 C-8.04 8.04 -4.08 4.08 0 0 Z " fill="#ED8768" transform="translate(149,651)"/>
<path d="M0 0 C-1.46966358 3.39859703 -3.38037514 5.64963709 -6 8.25 C-6.70125 8.95640625 -7.4025 9.6628125 -8.125 10.390625 C-10 12 -10 12 -12 12 C-10.53033642 8.60140297 -8.61962486 6.35036291 -6 3.75 C-5.29875 3.04359375 -4.5975 2.3371875 -3.875 1.609375 C-2 0 -2 0 0 0 Z " fill="#E43624" transform="translate(303,856)"/>
<path d="M0 0 C0.66 0 1.32 0 2 0 C2.66 1.98 3.32 3.96 4 6 C3.01 6.495 3.01 6.495 2 7 C1.61004898 8.86492402 1.61004898 8.86492402 1.5 11 C1.34375 13.1875 1.34375 13.1875 1 15 C0.01 15.495 0.01 15.495 -1 16 C-0.67 10.72 -0.34 5.44 0 0 Z " fill="#E48B4A" transform="translate(316,777)"/>
<path d="M0 0 C-3.63 2.31 -7.26 4.62 -11 7 C-11.33 5.68 -11.66 4.36 -12 3 C-10.3789897 2.30314502 -8.75303934 1.61777139 -7.125 0.9375 C-6.22007812 0.55464844 -5.31515625 0.17179688 -4.3828125 -0.22265625 C-2 -1 -2 -1 0 0 Z " fill="#DF7D74" transform="translate(197,624)"/>
<path d="M0 0 C0.33 0.99 0.66 1.98 1 3 C-1.31 5.31 -3.62 7.62 -6 10 C-6.99 9.67 -7.98 9.34 -9 9 C-6.03 6.03 -3.06 3.06 0 0 Z " fill="#FFE5D3" transform="translate(291,808)"/>
<path d="M0 0 C0.68359375 1.765625 0.68359375 1.765625 1 4 C-0.21484375 5.921875 -0.21484375 5.921875 -1.9375 7.75 C-2.50339844 8.36359375 -3.06929688 8.9771875 -3.65234375 9.609375 C-4.31943359 10.29773438 -4.31943359 10.29773438 -5 11 C-5.99 10.67 -6.98 10.34 -8 10 C-7.59007812 9.52949219 -7.18015625 9.05898438 -6.7578125 8.57421875 C-6.21898437 7.95160156 -5.68015625 7.32898438 -5.125 6.6875 C-4.59132813 6.07261719 -4.05765625 5.45773437 -3.5078125 4.82421875 C-1.8359553 2.86501788 -1.8359553 2.86501788 0 0 Z " fill="#E67435" transform="translate(314,793)"/>
<path d="M0 0 C1.32 0.33 2.64 0.66 4 1 C4 1.66 4 2.32 4 3 C4.763125 3.28875 5.52625 3.5775 6.3125 3.875 C9 5 9 5 12 7 C12 7.66 12 8.32 12 9 C7.09198451 7.51272258 3.59508707 4.55364515 0 1 C0 0.67 0 0.34 0 0 Z " fill="#E3412A" transform="translate(148,850)"/>
<path d="M0 0 C1 2 1 2 0.00390625 5.0390625 C-0.47175781 6.22242188 -0.94742188 7.40578125 -1.4375 8.625 C-1.91058594 9.81351563 -2.38367188 11.00203125 -2.87109375 12.2265625 C-3.24363281 13.14179687 -3.61617187 14.05703125 -4 15 C-4.33 15 -4.66 15 -5 15 C-5.56102731 9.38972689 -3.79491313 5.70308675 -1 1 C-0.67 0.67 -0.34 0.34 0 0 Z " fill="#E78353" transform="translate(150,673)"/>
<path d="M0 0 C0.99 0.495 0.99 0.495 2 1 C2 2.65 2 4.3 2 6 C2.66 6 3.32 6 4 6 C4 8.31 4 10.62 4 13 C0.90576832 9.90576832 0.06293995 6.4476188 -0.125 2.125 C-0.08375 1.42375 -0.0425 0.7225 0 0 Z " fill="#DF9148" transform="translate(167,714)"/>
<path d="M0 0 C-3.64116773 3.33773709 -7.28607242 3.97864902 -12 5 C-12.33 4.34 -12.66 3.68 -13 3 C-11.21189234 2.30329584 -9.41937948 1.61788811 -7.625 0.9375 C-6.62726563 0.55464844 -5.62953125 0.17179688 -4.6015625 -0.22265625 C-2 -1 -2 -1 0 0 Z " fill="#E42D1C" transform="translate(242,862)"/>
<path d="M0 0 C0.33 0.99 0.66 1.98 1 3 C-0.65 4.65 -2.3 6.3 -4 8 C-4.99 7.67 -5.98 7.34 -7 7 C-4.69 4.69 -2.38 2.38 0 0 Z " fill="#FFDFCF" transform="translate(281,818)"/>
<path d="M0 0 C-1.9626228 2.04795423 -3.4277307 2.94976638 -6.26953125 3.19921875 C-8.51954383 3.18858877 -10.75385562 3.12958525 -13 3 C-3.70474138 -1.85237069 -3.70474138 -1.85237069 0 0 Z " fill="#E37239" transform="translate(224,802)"/>
<path d="M0 0 C-0.33 0.66 -0.66 1.32 -1 2 C-3.64860427 2.59355614 -6.29197322 2.74209269 -9 3 C-7 0 -7 0 -5.0625 -0.75 C-3 -1 -3 -1 0 0 Z " fill="#F1625C" transform="translate(227,618)"/>
<path d="M0 0 C1.65 0 3.3 0 5 0 C5 0.66 5 1.32 5 2 C6.65 2.33 8.3 2.66 10 3 C10 3.66 10 4.32 10 5 C6.08788267 3.84414715 3.1254959 2.64465038 0 0 Z " fill="#E32D24" transform="translate(178,871)"/>
<path d="M0 0 C-1 3 -1 3 -4 5 C-6.6875 5.125 -6.6875 5.125 -9 5 C-2.40909091 0 -2.40909091 0 0 0 Z " fill="#E7783C" transform="translate(233,796)"/>
<path d="M0 0 C0.66 0.33 1.32 0.66 2 1 C-1.465 3.97 -1.465 3.97 -5 7 C-5.66 6.67 -6.32 6.34 -7 6 C-4.69 4.02 -2.38 2.04 0 0 Z " fill="#E9786B" transform="translate(201,627)"/>
</svg>
